<!-- This Source Code Form is subject to the terms of the Mozilla Public
   - License, v. 2.0. If a copy of the MPL was not distributed with this
   - file, You can obtain one at http://mozilla.org/MPL/2.0/. -->
<svg xmlns="http://www.w3.org/2000/svg" width="16" height="16" viewBox="0 0 16 16">
  <g fill="none" fill-rule="evenodd">
    <rect width="16" height="16"/>
    <path fill="#4a4a4f" fill-rule="nonzero" d="M13.5,2.00250628 C14.0522847,2.00250628 14.5,2.45022153 14.5,3.00250628 C14.5,3.55479103 14.0522847,4.00250628 13.5,4.00250628 L13.5,13.0025063 C13.5,14.6593605 12.1568542,16.0025063 10.5,16.0025063 L5.5,16.0025063 C3.84314575,16.0025063 2.5,14.6593605 2.5,13.0025063 L2.5,4.00250628 C1.94771525,4.00250628 1.5,3.55479103 1.5,3.00250628 C1.5,2.45022153 1.94771525,2.00250628 2.5,2.00250628 L5.55,2.00250628 C5.78659623,0.837344292 6.81105919,-1.54351792e-13 8,-1.54543045e-13 C9.18894081,-1.54734298e-13 10.2134038,0.837344292 10.45,2.00250628 L13.5,2.00250628 Z M11.5,13.0025063 L11.5,4.00250628 L4.5,4.00250628 L4.5,13.0025063 C4.5,13.554791 4.94771525,14.0025063 5.5,14.0025063 L10.5,14.0025063 C11.0522847,14.0025063 11.5,13.554791 11.5,13.0025063 Z M8,1.00250628 C7.37180396,1.00902136 6.81528212,1.40910895 6.609,2.00250628 L9.391,2.00250628 C9.18471788,1.40910895 8.62819604,1.00902136 8,1.00250628 Z M6,12.0025063 C5.72385763,12.0025063 5.5,11.7786487 5.5,11.5025063 L5.5,5.50250628 C5.5,5.22636391 5.72385763,5.00250628 6,5.00250628 C6.27614237,5.00250628 6.5,5.22636391 6.5,5.50250628 L6.5,11.5025063 C6.5,11.7786487 6.27614237,12.0025063 6,12.0025063 Z M8,12.0025063 C7.72385763,12.0025063 7.5,11.7786487 7.5,11.5025063 L7.5,5.50250628 C7.5,5.22636391 7.72385763,5.00250628 8,5.00250628 C8.27614237,5.00250628 8.5,5.22636391 8.5,5.50250628 L8.5,11.5025063 C8.5,11.7786487 8.27614237,12.0025063 8,12.0025063 Z M10,12.0025063 C9.72385763,12.0025063 9.5,11.7786487 9.5,11.5025063 L9.5,5.50250628 C9.5,5.22636391 9.72385763,5.00250628 10,5.00250628 C10.2761424,5.00250628 10.5,5.22636391 10.5,5.50250628 L10.5,11.5025063 C10.5,11.7786487 10.2761424,12.0025063 10,12.0025063 Z"/>
  </g>
</svg>
