<svg xmlns="http://www.w3.org/2000/svg" width="16" height="16" viewBox="0 0 16 16">
    <path fill="#4A4A4F" fill-rule="nonzero" d="M8 16A8 8 0 1 1 8 0a8 8 0 0 1 0 16zm3.322-4.946c-1.002-.312-1.48-.699-1.57-1.1a1.832 1.832 0 0 1-.025-.148.716.716 0 0 1 .21-.619c.393-.37.503-.862.564-1.326.002 0 .027-.087.062-.216.184-.055.38-.295.477-.62.082-.275.075-.537-.003-.702a.812.812 0 0 1-.08-.518c.046-.227.093-.528.117-.962a1.917 1.917 0 0 0-.027-.43 2.239 2.239 0 0 0-.119-.43 2.809 2.809 0 0 0-.491-.812c-.435-.504-1.062-.915-1.862-1.112A2.249 2.249 0 0 0 8.1 2h-.072a2.5 2.5 0 0 0-.547.062 2.172 2.172 0 0 0-1.187.727.69.69 0 0 1-.242.18c-.413.191-.64.538-.758.917-.066.212-.098.43-.112.64l-.005.079c-.002.025-.003.051-.003.077l-.002.148c0 .096.002.188.003.27.007.383.067.818.117 1.11-.02.001-.042.001-.062.008-.216.068-.285.457-.154.865.109.34.322.583.515.616l.04.157c.112.443.283 1.046.706 1.4.203.17.305.438.248.696-.002 0-.002.002-.002.003-.09.4-.57.787-1.571 1.1-.176.055-.336.1-.483.143-.555.162-.717.877-.279 1.253a5.948 5.948 0 0 0 3.887 1.437 5.953 5.953 0 0 0 3.904-1.453c.437-.376.272-1.09-.28-1.25-.135-.04-.28-.081-.44-.13z"/>
</svg>
