<svg xmlns="http://www.w3.org/2000/svg" xmlns:xlink="http://www.w3.org/1999/xlink" width="40" height="40" viewBox="0 0 40 40">
    <defs>
        <path id="a" d="M8.947 0h22.106A8.947 8.947 0 0 1 40 8.947v22.106A8.947 8.947 0 0 1 31.053 40H8.947A8.947 8.947 0 0 1 0 31.053V8.947A8.947 8.947 0 0 1 8.947 0z"/>
        <linearGradient id="c" x1="47.314%" x2="57.934%" y1="31.782%" y2="67.596%">
            <stop offset="0%" stop-color="#00C8D7"/>
            <stop offset="100%" stop-color="#0060DF"/>
        </linearGradient>
        <path id="e" d="M37.84 28.41l-1.515 6.26a1.135 1.135 0 0 0 1.096 1.415h3.208c.093 0 .185-.01.275-.033a1.14 1.14 0 0 0 .822-1.382l-1.534-6.342a3.321 3.321 0 1 0-2.353.082zm14.09-2.559h25.69v6.563H51.93v4.609c0 1.726-1.452 3.125-3.243 3.125H30.845c-2.688 0-4.866-2.099-4.866-4.687v-3.047H.197V25.85H25.98v-2.89c0-2.59 2.178-4.688 4.866-4.688h16.22c2.687 0 4.866 2.099 4.866 4.688v2.89z"/>
        <filter id="d" width="107.7%" height="127.4%" x="-3.9%" y="-13.7%" filterUnits="objectBoundingBox">
            <feOffset in="SourceAlpha" result="shadowOffsetOuter1"/>
            <feGaussianBlur in="shadowOffsetOuter1" result="shadowBlurOuter1" stdDeviation="1"/>
            <feComposite in="shadowBlurOuter1" in2="SourceAlpha" operator="out" result="shadowBlurOuter1"/>
            <feColorMatrix in="shadowBlurOuter1" values="0 0 0 0 0 0 0 0 0 0 0 0 0 0 0 0 0 0 0.4 0"/>
        </filter>
    </defs>
    <g fill="none" fill-rule="evenodd">
        <mask id="b" fill="#fff">
            <use xlink:href="#a"/>
        </mask>
        <g mask="url(#b)">
            <path fill="#FFF" d="M0 0h40v40H0z"/>
            <path fill="url(#c)" d="M2.15.148h73.516c1.079 0 1.953.874 1.953 1.953V56.32a1.953 1.953 0 0 1-1.953 1.953H2.15A1.953 1.953 0 0 1 .197 56.32V2.1c0-1.079.875-1.953 1.953-1.953z" transform="translate(-18.947 -9.21)"/>
            <g transform="translate(-18.947 -9.21)">
                <use fill="#000" filter="url(#d)" xlink:href="#e"/>
                <use fill="#FFF" fill-opacity=".95" xlink:href="#e"/>
            </g>
        </g>
    </g>
</svg>
