<svg width="145" height="49" xmlns="http://www.w3.org/2000/svg"><g fill="none" fill-rule="evenodd"><path d="M133.08.112H11.52c-.443 0-.88 0-1.323.003-.37.002-.737.01-1.11.015a15.98 15.98 0 0 0-2.422.214 8.026 8.026 0 0 0-2.296.757A7.779 7.779 0 0 0 .99 4.484a7.976 7.976 0 0 0-.755 2.3 15.7 15.7 0 0 0-.217 2.42c-.01.37-.012.741-.018 1.112v27.93c.006.375.007.738.018 1.114.01.81.082 1.62.217 2.419a7.96 7.96 0 0 0 .755 2.3 7.501 7.501 0 0 0 1.424 1.951 7.582 7.582 0 0 0 1.956 1.424 8.097 8.097 0 0 0 2.296.763c.801.131 1.61.203 2.422.213.373.009.74.013 1.11.013.442.003.88.003 1.323.003H133.08c.434 0 .875 0 1.31-.003.368 0 .745-.004 1.113-.013.81-.01 1.618-.081 2.417-.213a8.222 8.222 0 0 0 2.306-.763 7.585 7.585 0 0 0 1.954-1.424 7.727 7.727 0 0 0 1.428-1.95 7.98 7.98 0 0 0 .748-2.301c.134-.8.21-1.609.224-2.42.005-.375.005-.738.005-1.113.01-.44.01-.876.01-1.322V11.635c0-.442 0-.881-.01-1.32 0-.37 0-.741-.005-1.112a16.32 16.32 0 0 0-.224-2.419 7.996 7.996 0 0 0-.748-2.3 7.813 7.813 0 0 0-3.382-3.383 8.177 8.177 0 0 0-2.306-.757 15.761 15.761 0 0 0-2.417-.214c-.368-.006-.745-.013-1.114-.015-.434-.003-.875-.003-1.31-.003z" fill="#A6A6A6"/><path d="M10.204 47.388c-.368 0-.727-.004-1.093-.013a15.33 15.33 0 0 1-2.258-.197 7.11 7.11 0 0 1-2.002-.662 6.532 6.532 0 0 1-1.688-1.228A6.43 6.43 0 0 1 1.93 43.6a6.914 6.914 0 0 1-.656-2.002 15 15 0 0 1-.201-2.266c-.008-.254-.018-1.103-.018-1.103V10.316s.01-.836.018-1.081c.009-.758.076-1.514.2-2.262a6.955 6.955 0 0 1 .656-2.008 6.493 6.493 0 0 1 1.227-1.69A6.725 6.725 0 0 1 4.85 2.04a7.036 7.036 0 0 1 1.998-.657c.75-.123 1.507-.19 2.266-.199l1.09-.014h124.18l1.103.015c.752.009 1.503.075 2.245.196.702.12 1.383.343 2.02.662a6.76 6.76 0 0 1 2.917 2.925c.315.627.533 1.299.647 1.992.126.754.196 1.516.21 2.28.004.343.004.71.004 1.076.01.453.01.884.01 1.32v25.288c0 .439 0 .867-.01 1.3 0 .392 0 .752-.005 1.123-.014.75-.083 1.499-.207 2.24a6.935 6.935 0 0 1-.652 2.017 6.622 6.622 0 0 1-1.227 1.675 6.54 6.54 0 0 1-1.691 1.235 7.083 7.083 0 0 1-2.016.664c-.747.122-1.502.188-2.258.197-.354.009-.725.013-1.085.013l-1.31.003-122.875-.003z" fill="#000"/><g fill="#FFF"><path d="M29.93 24.642a5.98 5.98 0 0 1 2.847-5.017 6.121 6.121 0 0 0-4.823-2.607c-2.03-.213-3.996 1.214-5.03 1.214-1.054 0-2.646-1.193-4.36-1.158a6.423 6.423 0 0 0-5.405 3.297c-2.337 4.046-.594 9.992 1.644 13.262 1.12 1.602 2.43 3.39 4.142 3.327 1.676-.07 2.302-1.068 4.325-1.068 2.005 0 2.592 1.068 4.34 1.028 1.798-.03 2.931-1.609 4.012-3.225a13.246 13.246 0 0 0 1.834-3.737 5.778 5.778 0 0 1-3.527-5.316zm-3.302-9.775a5.888 5.888 0 0 0 1.347-4.218 5.99 5.99 0 0 0-3.876 2.006 5.602 5.602 0 0 0-1.382 4.061 4.953 4.953 0 0 0 3.911-1.849z"/><path d="M51.115 32.906h-5.72l-1.373 4.056H41.6l5.417-15.005h2.517l5.417 15.005h-2.463l-1.373-4.056zm-5.127-1.871h4.534l-2.235-6.583h-.063l-2.236 6.583zm20.663.457c0 3.4-1.82 5.584-4.565 5.584a3.709 3.709 0 0 1-3.442-1.914h-.052v5.419h-2.246V26.02h2.174v1.82h.041a3.88 3.88 0 0 1 3.484-1.934c2.776 0 4.606 2.195 4.606 5.585zm-2.308 0c0-2.214-1.144-3.67-2.89-3.67-1.717 0-2.87 1.486-2.87 3.67 0 2.205 1.153 3.68 2.87 3.68 1.746 0 2.89-1.445 2.89-3.68zm14.349 0c0 3.4-1.82 5.584-4.565 5.584a3.709 3.709 0 0 1-3.442-1.914h-.052v5.419h-2.246V26.02h2.174v1.82h.04a3.88 3.88 0 0 1 3.484-1.934c2.777 0 4.607 2.195 4.607 5.585zm-2.308 0c0-2.214-1.145-3.67-2.891-3.67-1.716 0-2.87 1.486-2.87 3.67 0 2.205 1.154 3.68 2.87 3.68 1.746 0 2.891-1.445 2.891-3.68z" fill-rule="nonzero"/><path d="M86.65 32.781c.167 1.488 1.612 2.465 3.587 2.465 1.893 0 3.255-.977 3.255-2.319 0-1.164-.821-1.862-2.766-2.34l-1.945-.468c-2.755-.666-4.034-1.954-4.034-4.045 0-2.59 2.256-4.367 5.46-4.367 3.17 0 5.344 1.778 5.417 4.367h-2.267c-.135-1.498-1.373-2.402-3.182-2.402-1.81 0-3.047.915-3.047 2.246 0 1.06.79 1.685 2.725 2.163l1.653.406c3.079.728 4.358 1.965 4.358 4.16 0 2.807-2.236 4.565-5.793 4.565-3.328 0-5.574-1.717-5.72-4.431h2.3zm14.06-9.348v2.589h2.08V27.8h-2.08v6.031c0 .937.417 1.374 1.331 1.374a7.3 7.3 0 0 0 .739-.052v1.767c-.411.077-.83.112-1.248.104-2.214 0-3.078-.832-3.078-2.953V27.8h-1.59v-1.78h1.59v-2.588h2.256z"/><path d="M103.995 31.492c0-3.442 2.027-5.605 5.189-5.605 3.172 0 5.19 2.163 5.19 5.605 0 3.452-2.008 5.605-5.19 5.605-3.182 0-5.189-2.153-5.189-5.605zm8.09 0c0-2.36-1.082-3.754-2.901-3.754-1.82 0-2.9 1.404-2.9 3.754 0 2.371 1.08 3.754 2.9 3.754 1.82 0 2.901-1.383 2.901-3.754z" fill-rule="nonzero"/><path d="M116.225 26.022h2.142v1.862h.052a2.61 2.61 0 0 1 2.63-1.977c.26 0 .518.028.77.084v2.1a3.14 3.14 0 0 0-1.009-.135 2.263 2.263 0 0 0-2.34 2.517v6.489h-2.245v-10.94z"/><path d="M132.173 33.749c-.302 1.986-2.236 3.348-4.71 3.348-3.183 0-5.159-2.132-5.159-5.553 0-3.431 1.986-5.657 5.064-5.657 3.026 0 4.93 2.08 4.93 5.397v.769h-7.727v.136a2.85 2.85 0 0 0 2.943 3.098 2.475 2.475 0 0 0 2.526-1.538h2.133zm-7.591-3.265h5.469a2.63 2.63 0 0 0-2.683-2.777 2.77 2.77 0 0 0-2.786 2.777z" fill-rule="nonzero"/></g><g fill="#FFF"><path d="M45.707 10.662a3.19 3.19 0 0 1 3.392 3.583c0 2.303-1.245 3.627-3.392 3.627h-2.605v-7.21h2.605zm-1.485 6.19h1.36a2.267 2.267 0 0 0 2.377-2.592 2.273 2.273 0 0 0-2.377-2.579h-1.36v5.172zm6.142-1.702a2.578 2.578 0 1 1 5.132 0 2.578 2.578 0 1 1-5.132 0zm4.028 0c0-1.18-.53-1.87-1.46-1.87-.934 0-1.459.69-1.459 1.87 0 1.188.526 1.873 1.459 1.873.93 0 1.46-.69 1.46-1.874z" fill-rule="nonzero"/><path d="M62.318 17.872h-1.114l-1.125-4.007h-.085l-1.12 4.007h-1.103l-1.5-5.44h1.09l.974 4.15h.08l1.12-4.15h1.03l1.118 4.15h.085l.97-4.15h1.074zm2.755-5.441h1.034v.864h.08a1.629 1.629 0 0 1 1.624-.969 1.77 1.77 0 0 1 1.883 2.024v3.522H68.62V14.62c0-.874-.38-1.309-1.174-1.309a1.248 1.248 0 0 0-1.3 1.379v3.183h-1.073v-5.44zm6.332-2.124h1.074v7.565h-1.074z"/><path d="M73.971 15.15a2.578 2.578 0 1 1 5.133 0 2.578 2.578 0 1 1-5.133 0zm4.028 0c0-1.18-.53-1.87-1.46-1.87-.933 0-1.458.69-1.458 1.87 0 1.188.525 1.873 1.458 1.873.93 0 1.46-.69 1.46-1.874zm2.235 1.183c0-.979.73-1.544 2.024-1.624l1.474-.085v-.47c0-.574-.38-.899-1.114-.899-.6 0-1.015.22-1.134.605h-1.04c.11-.934.99-1.534 2.224-1.534 1.364 0 2.133.68 2.133 1.829v3.717h-1.034v-.765h-.085a1.83 1.83 0 0 1-1.634.855 1.644 1.644 0 0 1-1.814-1.629zm3.498-.465v-.454l-1.329.085c-.749.05-1.089.305-1.089.784 0 .49.425.775 1.01.775a1.283 1.283 0 0 0 1.408-1.19zm2.48-.718c0-1.72.884-2.81 2.259-2.81a1.793 1.793 0 0 1 1.668.955h.08v-2.988h1.074v7.565h-1.028v-.86h-.085a1.888 1.888 0 0 1-1.71.95c-1.383 0-2.258-1.09-2.258-2.813zm1.11 0c0 1.153.544 1.848 1.453 1.848.905 0 1.465-.705 1.465-1.844 0-1.134-.565-1.849-1.465-1.849-.904 0-1.453.7-1.453 1.844zm8.414 0a2.578 2.578 0 1 1 5.132 0 2.578 2.578 0 1 1-5.132 0zm4.028 0c0-1.18-.53-1.87-1.46-1.87-.933 0-1.458.69-1.458 1.87 0 1.188.525 1.873 1.458 1.873.93 0 1.46-.69 1.46-1.874z" fill-rule="nonzero"/><path d="M102.309 12.431h1.034v.864h.08a1.629 1.629 0 0 1 1.624-.969 1.77 1.77 0 0 1 1.883 2.024v3.522h-1.074V14.62c0-.874-.38-1.309-1.174-1.309a1.248 1.248 0 0 0-1.3 1.379v3.183h-1.073v-5.44zm10.688-1.355v1.38h1.18v.904h-1.18v2.798c0 .57.235.82.77.82.137 0 .273-.009.41-.025v.894a3.523 3.523 0 0 1-.585.055c-1.194 0-1.67-.42-1.67-1.469V13.36h-.863v-.904h.863v-1.38h1.075zm2.646-.769h1.064v2.998h.085a1.674 1.674 0 0 1 1.66-.974 1.792 1.792 0 0 1 1.873 2.028v3.513h-1.075v-3.248c0-.869-.404-1.31-1.163-1.31a1.271 1.271 0 0 0-1.37 1.38v3.178h-1.074v-7.565z"/><path d="M126.587 16.403a2.209 2.209 0 0 1-2.358 1.574 2.471 2.471 0 0 1-2.514-2.808 2.51 2.51 0 0 1 2.51-2.843c1.513 0 2.426 1.034 2.426 2.743v.375h-3.842v.06a1.438 1.438 0 0 0 1.45 1.559 1.304 1.304 0 0 0 1.294-.66h1.034zm-3.778-1.753h2.749a1.313 1.313 0 0 0-1.34-1.41 1.392 1.392 0 0 0-1.409 1.41z" fill-rule="nonzero"/></g></g></svg>