<svg xmlns="http://www.w3.org/2000/svg" xmlns:xlink="http://www.w3.org/1999/xlink" width="18" height="18" viewBox="0 0 20 20">
    <defs>
        <path id="a" d="M10 18.75a8.75 8.75 0 1 1 0-17.5 8.75 8.75 0 0 1 0 17.5zM10 2.5a7.5 7.5 0 1 0 0 15 7.5 7.5 0 0 0 0-15zM10 15c-.69 0-1.25-.56-1.25-1.25V10a1.25 1.25 0 1 1 2.5 0v3.75c0 .69-.56 1.25-1.25 1.25zm0-7.5A1.25 1.25 0 1 1 10 5a1.25 1.25 0 0 1 0 2.5z"/>
    </defs>
    <g fill="none" fill-rule="evenodd">
        <path d="M0 0h20v20H0z"/>
        <mask id="b" fill="#fff">
            <use xlink:href="#a"/>
        </mask>
        <use fill="#000" xlink:href="#a"/>
        <g fill="#38383D" mask="url(#b)">
            <path d="M0 0h20v20H0z"/>
        </g>
    </g>
</svg>
