<svg id="Layer_1" data-name="Layer 1" xmlns="http://www.w3.org/2000/svg" viewBox="0 0 16 16" fill="context-fill #0c0c0d" fill-opacity="context-fill-opacity"><defs><style>.cls-1{fill-rule:evenodd;}</style></defs><title>lockbox-16</title><path d="M13,1H3A3,3,0,0,0,0,4v8a3,3,0,0,0,3,3H13a3,3,0,0,0,3-3V4A3,3,0,0,0,13,1Zm1,11a1,1,0,0,1-1,1H3a1,1,0,0,1-1-1V4A1,1,0,0,1,3,3H13a1,1,0,0,1,1,1Z"/><path class="cls-1" d="M7.41,7.73a1.7,1.7,0,1,1,1.18,0l.75,3.14a.57.57,0,0,1-.41.69l-.14,0H7.2A.57.57,0,0,1,6.64,11a.58.58,0,0,1,0-.14Z"/></svg>
