<?xml version="1.0" encoding="UTF-8"?>
<svg width="279" height="143" viewBox="0 0 279 143" xmlns="http://www.w3.org/2000/svg">
  <title>
    Global / Nessie
  </title>
  <defs>
    <linearGradient x1="-88.252%" y1="-4.725%" x2="471.083%" y2="245.428%" id="a">
      <stop stop-color="#CCFBFF" offset="0%"/>
      <stop stop-color="#C9E4FF" offset="100%"/>
    </linearGradient>
    <linearGradient x1="2.866%" y1="35.306%" x2="495.113%" y2="251.394%" id="b">
      <stop stop-color="#CCFBFF" offset="0%"/>
      <stop stop-color="#C9E4FF" offset="100%"/>
    </linearGradient>
    <linearGradient x1="-445.203%" y1="-321.302%" x2="673.467%" y2="539.392%" id="c">
      <stop stop-color="#CCFBFF" offset="0%"/>
      <stop stop-color="#C9E4FF" offset="100%"/>
    </linearGradient>
    <linearGradient x1="-475.977%" y1="-237.251%" x2="369.365%" y2="234.399%" id="d">
      <stop stop-color="#CCFBFF" offset="0%"/>
      <stop stop-color="#C9E4FF" offset="100%"/>
    </linearGradient>
    <linearGradient x1="-10.712%" y1="20.676%" x2="226.45%" y2="136.651%" id="e">
      <stop stop-color="#00C8D7" offset="0%"/>
      <stop stop-color="#0A84FF" offset="100%"/>
    </linearGradient>
    <linearGradient x1="-280.937%" y1="-182.657%" x2="107.94%" y2="102.629%" id="f">
      <stop stop-color="#CCFBFF" offset="0%"/>
      <stop stop-color="#C9E4FF" offset="100%"/>
    </linearGradient>
    <linearGradient x1="-4648.315%" y1="-1714.13%" x2="853.341%" y2="344.555%" id="g">
      <stop stop-color="#CCFBFF" offset="0%"/>
      <stop stop-color="#C9E4FF" offset="100%"/>
    </linearGradient>
    <linearGradient x1="-2147.367%" y1="-769.021%" x2="417.622%" y2="183.121%" id="h">
      <stop stop-color="#CCFBFF" offset="0%"/>
      <stop stop-color="#C9E4FF" offset="100%"/>
    </linearGradient>
    <linearGradient x1="-4269.02%" y1="-1787.436%" x2="894.072%" y2="420.429%" id="i">
      <stop stop-color="#CCFBFF" offset="0%"/>
      <stop stop-color="#C9E4FF" offset="100%"/>
    </linearGradient>
    <linearGradient x1="-1889.66%" y1="-850.787%" x2="420.769%" y2="229.657%" id="j">
      <stop stop-color="#CCFBFF" offset="0%"/>
      <stop stop-color="#C9E4FF" offset="100%"/>
    </linearGradient>
    <linearGradient x1="-3348.934%" y1="-1750.631%" x2="899.178%" y2="523.14%" id="k">
      <stop stop-color="#CCFBFF" offset="0%"/>
      <stop stop-color="#C9E4FF" offset="100%"/>
    </linearGradient>
    <linearGradient x1="-1553.941%" y1="-834.585%" x2="444.091%" y2="285.582%" id="l">
      <stop stop-color="#CCFBFF" offset="0%"/>
      <stop stop-color="#C9E4FF" offset="100%"/>
    </linearGradient>
    <linearGradient x1="-265.672%" y1="-219.594%" x2="103.271%" y2="108.555%" id="m">
      <stop stop-color="#00C8D7" offset="0%"/>
      <stop stop-color="#0A84FF" offset="100%"/>
    </linearGradient>
    <linearGradient x1="-119.885%" y1="-148.666%" x2="179.882%" y2="241.098%" id="n">
      <stop stop-color="#00C8D7" offset="0%"/>
      <stop stop-color="#0A84FF" offset="100%"/>
    </linearGradient>
    <linearGradient x1="-1887.893%" y1="-502.205%" x2="6448.476%" y2="1897.121%" id="o">
      <stop stop-color="#00C8D7" offset="0%"/>
      <stop stop-color="#0A84FF" offset="100%"/>
    </linearGradient>
    <linearGradient x1="-541.907%" y1="-686.193%" x2="1904.535%" y2="2427.212%" id="p">
      <stop stop-color="#00C8D7" offset="0%"/>
      <stop stop-color="#0A84FF" offset="100%"/>
    </linearGradient>
    <linearGradient x1="-995.929%" y1="-245.313%" x2="7340.44%" y2="2154.014%" id="q">
      <stop stop-color="#00C8D7" offset="0%"/>
      <stop stop-color="#0A84FF" offset="100%"/>
    </linearGradient>
    <linearGradient x1="-279.447%" y1="-348.963%" x2="2166.995%" y2="2730.173%" id="r">
      <stop stop-color="#00C8D7" offset="0%"/>
      <stop stop-color="#0A84FF" offset="100%"/>
    </linearGradient>
  </defs>
  <g fill-rule="nonzero" fill="none">
    <path d="M160.97 63c.55 0 1.03-.467 1.03-1 0-.533-.48-1-1.03-1h-53.215c-.206.6-.48 1.267-.755 2h53.97zM139.472 57c-.27 0-.472.214-.472.5 0 .286.202.5.472.5h12.056c.27 0 .472-.214.472-.5 0-.286-.202-.5-.472-.5h-12.056zM112.475 66c-.272 0-.475.214-.475.5 0 .286.203.5.475.5h3.05c.272 0 .475-.214.475-.5 0-.286-.203-.5-.475-.5h-3.05zM106.483 66a.48.48 0 0 0-.483.5c0 .286.207.5.483.5h1.034a.48.48 0 0 0 .483-.5.48.48 0 0 0-.483-.5h-1.034zM123.472 66c-.27 0-.472.214-.472.5 0 .286.202.5.472.5h12.056c.27 0 .472-.214.472-.5 0-.286-.202-.5-.472-.5h-12.056z" fill="#D7D7DB"/>
    <path d="M62.57 98.975c4.767.277 8.843-1.801 11.813-4.087 3.454-5.404 8.842-11.57 17.062-18.636 10.292-8.868 14.437-25.08 13.4-31.938l-.552 1.455a.52.52 0 0 1-.484.346c-.069 0-.138 0-.207-.069-.276-.139-.414-.416-.276-.693l1.105-2.702v-.069l.345-1.178-1.105-.346c-1.658-3.187-3.799-6.166-6.286-8.868-.069.832-.138 1.455-.207 1.663a.52.52 0 0 1-.483.346h-.139c-.276-.069-.414-.346-.345-.623.07-.208.138-1.109.276-2.286l-.138-.139-.069-3.88-4.006.07c-3.316-2.771-6.977-5.196-10.707-7.205l-1.589-5.75-4.766 1.316 2.417 1.108c.277.139.346.416.277.693-.07.208-.277.277-.484.277-.069 0-.138 0-.207-.069l-3.523-1.593-.483.138C67.613 14.178 62.225 13 57.805 13c-.553 0-1.106 0-1.59.07-8.012.554-21.206 10.876-31.705 21.199-3.04 3.394-10.707 12.47-12.158 19.952-1.658 8.73 2.694 18.844 9.74 22.516 8.22 4.295 26.387 2.009 32.397 1.108 1.174-.485 1.865-.762 1.934-.762.484-.208 1.105 0 1.382.485.207.485 0 1.108-.484 1.385-.138.07-1.174.555-2.97 1.178-.622 1.386-2.004 4.78-1.865 8.452 0 4.711 2.21 9.838 10.085 10.392zM31.556 52.628c-.276.138-.552.277-.828.277-.484 0-.968-.277-1.313-.693 0-.07-.898-1.316-2.625-1.316-1.727 0-2.625 1.316-2.625 1.316-.483.693-1.45.9-2.141.485-.69-.485-.898-1.455-.484-2.148.07-.07 1.313-1.94 3.73-2.563-.069-.208-.138-.416-.138-.624v-3.325c0-.831.622-1.455 1.451-1.455.829 0 1.45.624 1.45 1.455v3.256c0 .208-.068.416-.138.554 2.694.485 4.007 2.494 4.076 2.633.553.762.345 1.732-.415 2.148zm25.766-.416c-.484.693-1.45.9-2.141.485-.691-.416-.898-1.455-.484-2.148.07-.07 1.313-1.94 3.73-2.563-.069-.208-.138-.416-.138-.624v-3.325c0-.831.622-1.455 1.45-1.455.83 0 1.451.624 1.451 1.455v3.256c0 .208-.069.416-.138.554 2.694.485 4.007 2.494 4.076 2.633.483.693.276 1.663-.484 2.148-.276.138-.553.277-.829.277-.483 0-.967-.277-1.312-.693 0-.07-.898-1.316-2.625-1.316-1.658 0-2.556 1.316-2.556 1.316z" fill="#FFF"/>
    <path d="M30.664 119.694c.346-13.124 4.624-25.081 12.698-35.526-2.691.412-5.728.619-8.971.619-3.727 0-6.9-.275-8.005-.413-6.97-.893-11.11-3.298-15.458-8.727-3.381-4.26-7.315-13.468-5.451-20.683 1.242-4.742 4.761-9.277 7.521-12.232 3.865-5.222 8.695-9.757 8.902-9.963a3.265 3.265 0 0 1 1.726-.756c5.796-5.635 21.806-20.134 32.157-20.821.552-.069 1.173-.069 1.725-.069 4.486 0 9.8 1.1 15.458 3.16l6.21-1.717c.208-.069.346-.069.553-.069.345 0 .69.069 1.035.275.483.275.828.687.966 1.237l1.311 4.879a73.76 73.76 0 0 1 9.661 6.46l3.244-.07h.069c.552 0 1.035.207 1.449.55.414.344.621.894.621 1.443l.069 3.024c2.76 2.886 4.969 5.91 6.694 9.07l.276.069c.552.137.966.55 1.242 1.03.276.482.276 1.031.138 1.581l-.138.55c1.035 3.436.483 9.483-1.587 15.736-1.518 4.604-5.038 13.193-12.146 19.24-12.076 10.308-19.253 19.86-21.185 28.243-1.45 6.115.069 10.72 1.518 14.155.828-.343 1.587-.756 2.346-1.168.415-.206.829-.48 1.312-.687-2.623-6.597-4.762-17.317 18.7-37.382 6.418-5.497 10.145-12.643 12.215-17.866.276-.756.552-1.443.76-2.061.137-.413.275-.825.413-1.168.828-2.612 3.175-10.72 1.932-16.973a5.93 5.93 0 0 0-.62-4.055 6.911 6.911 0 0 0-2.278-2.405c-1.518-2.61-3.381-5.085-5.52-7.49l-.07-1.511c-.069-1.65-.69-3.161-1.932-4.33-1.173-1.099-2.691-1.717-4.278-1.717h-.138l-1.725.068a84.504 84.504 0 0 0-7.522-5.085l-.897-3.23c-.414-1.58-1.45-2.885-2.899-3.71a6.116 6.116 0 0 0-3.036-.825c-.552 0-1.104.069-1.656.206l-4.969 1.375C67.514 8.03 62.132 7 57.508 7c-.69 0-1.38 0-2 .069-4.831.343-15.527 3.573-33.884 21.164-.897.344-1.794.825-2.484 1.512-.207.206-5.175 4.879-9.247 10.307-4.347 4.742-7.177 9.346-8.28 13.812-2.347 9.07 2.552 19.653 6.21 24.188 4.968 6.254 10.213 9.208 18.149 10.24.138 0 3.657.48 8.557.48h.828c-5.452 9.346-8.419 19.584-8.695 30.716 0 .481.069 1.031.138 1.512 1.45-.206 2.691-.756 3.864-1.306z" fill="#F9F9FA"/>
    <path d="M219 103.2l-1-.2.917.3s0-.1.083-.1z" fill="#FFF"/>
    <path d="M186.387 121c2.693-.964 5.386-1.997 7.873-3.098l2.417-5.922c.552-1.308 1.795-2.134 3.177-2.134.414 0 .897.069 1.312.275l4.282 1.79a57.343 57.343 0 0 0 3.936-2.822l.829-5.509c.207-1.652 1.657-2.891 3.384-2.891.138 0 .345 0 .483.068l3.73.551a54.256 54.256 0 0 0 3.107-3.856l-.69-3.029c-.208-.895-.07-1.79.414-2.548a3.457 3.457 0 0 1 2.14-1.514l2.832-.689c1.727-3.374 3.039-5.99 6.768-6.54.207 0 .346-.07.553-.07 4.696 0 10.29 9.846 11.947 12.876 3.591 6.747 6.009 14.046 7.044 20.793a22.429 22.429 0 0 1 4.075-.55c-1.381-9.433-5.11-17.696-7.528-22.102C243.155 84.095 237.906 79 232.934 79c-.415 0-.76 0-1.174.069-4.904.757-7.252 3.993-8.91 7.092l-1.035.206a7.759 7.759 0 0 0-4.696 3.374c-1.036 1.721-1.381 3.718-.898 5.646l.276 1.102c-.069.137-.207.275-.276.413l-1.52-.207c-.345-.069-.69-.069-1.035-.069-3.73 0-6.906 2.754-7.459 6.404l-.552 3.855-.622.413-2.279-.895c-.898-.344-1.864-.55-2.831-.55-3.039 0-5.801 1.79-6.975 4.613l-1.796 4.337c-2.28.964-4.696 1.86-7.113 2.686-1.174.206-2.141.481-3.039.826.552.275 1.036.55 1.52.826 1.173.689 2.347 1.308 3.867 1.859z" fill="#F9F9FA"/>
    <path fill="#FFF" d="M197 117.6v-.1l.2-.5zM205.4 114.1l-.4-.1.4.1c0 .1 0 0 0 0zM154.13 110.431c2.703-4.186 2.98-8.235 2.841-10.225-.069.549-.138.892-.138.892 0 .275-.277.48-.485.48h-.07c-.277-.068-.484-.274-.415-.549 0-.205.485-3.843.762-5.558 0-.755-.139-1.373-.554-1.716-.139-.069-.277-.137-.485-.137-1.247 0-3.672 1.372-4.642 1.372-.139 0-.208 0-.278-.068-5.265-3.157-11.432-5.216-18.152-5.285h-.624c.346.343.624.48.624.48.207.207.277.481.069.687-.07.137-.277.206-.416.206-.138 0-.208-.069-.346-.137-.07-.07-.762-.618-1.732-1.51C128.84 88.608 127.04 86 126 86h-.07c-1.524.206-3.187 4.804-4.295 5.078-3.395.961-5.058 1.922-7.622 3.157l.97.48c.277.138.347.412.208.687-.07.206-.277.274-.485.274-.07 0-.138 0-.208-.068l-2.009-1.03c-1.109-.343-3.534-1.853-4.85-1.853-.277 0-.485.07-.624.206-1.524.687-.762 5.971-1.87 6.794-3.811 3.02-6.79 6.383-9.146 9.608.208 1.716 1.594 6.04 10.67 9.814 1.87.755 3.88 1.373 5.959 1.853 2.217-.549 3.81-1.373 5.473-2.265 2.772-1.51 5.612-3.02 11.224-3.02h.07c5.612 0 8.453 1.51 11.224 3.02l.416.206c5.958-1.921 10.808-5.01 13.095-8.51zM159 101a78.391 78.391 0 0 1 5 5c-1.397-1.667-3.015-3.4-5-5z"/>
    <path d="M89.467 116c2.406-5.114 6.667-11.795 13.745-17.523.07-.409.207-1.227.207-1.84.206-2.046.412-4.364 2.13-5.319.344-.273.962-.477 1.65-.477 1.305 0 2.748.682 4.192 1.364.275.136.618.34.962.409.55-.273 1.1-.546 1.58-.75 1.925-.955 3.574-1.773 6.323-2.523.275-.341.619-.955.894-1.432 1.1-1.773 2.199-3.545 3.986-3.818h.344c1.443 0 2.611 1.159 3.848 2.386.344.341.825.887 1.169 1.091h1.443c6.391.068 12.645 1.841 18.487 5.25.275-.068.687-.273 1.03-.409 1.1-.409 2.269-.886 3.3-.886.618 0 1.168.136 1.58.409 1.925 1.159 1.581 3.613 1.375 5.25 0 .204-.069.409-.069.613 6.46 5.182 10.79 11.728 12.165 17.932.55 0 1.1-.068 1.718-.068.893 0 1.718.068 2.474.136-1.237-6.75-5.498-13.84-12.027-19.636.137-2.25-.206-5.59-3.436-7.636-1.1-.682-2.406-1.023-3.78-1.023-1.512 0-2.818.41-4.055.886-5.91-3.068-12.302-4.704-18.625-4.84-1.512-1.5-3.505-3.546-6.666-3.546-.344 0-.619 0-.962.068-3.712.546-5.567 3.546-6.873 5.727v.069c-2.2.75-3.78 1.5-5.292 2.25-1.443-.682-3.23-1.364-5.086-1.364-1.374 0-2.68.34-3.78 1.023-3.504 1.977-3.917 6-4.123 8.454v.137c-7.56 6.477-11.89 13.977-14.295 19.363h1.03c1.375.068 2.406.205 3.437.273z" fill="#F9F9FA"/>
    <path d="M74 94.759c-2.87 2.207-6.97 4.344-11.685 4.069-7.79-.483-10.045-5.656-10.182-10.414-.136-3.655 1.23-7.035 1.845-8.414-1.435.552-3.416 1.172-5.74 1.862C45.437 85.103 33.957 97.655 33 118.966c2.597-1.38 5.398-2.76 10.66-2.76 5.535 0 8.337 1.518 11.07 3.035C57.327 120.69 59.787 122 64.843 122c2.46 0 4.305-.345 5.877-.828-2.187-5.517-4.647-13.862 3.28-26.413z" fill="url(#a)"/>
    <path d="M21.737 76.814c-7.032-3.684-11.375-13.831-9.72-22.588 1.448-7.507 9.1-16.612 12.133-20.017a.623.623 0 0 0-.483-.209.742.742 0 0 0-.482.209c-.276.278-5.033 4.795-8.686 9.869-2.689 2.92-5.93 7.159-7.101 11.538-1.655 6.602 2.206 15.43 5.032 19.113 3.999 5.074 7.79 7.228 14.133 8.062.275.07 1.103.14 2.137.209.138-.07.276-.139.413-.139 11.168-.139 20.958-3.406 24.887-4.935-5.929.904-24.06 3.197-32.263-1.112z" fill="url(#b)"/>
    <path d="M96.2 110c-1.82 2.44-3.15 4.814-4.2 6.915 2.38.543 4.13 1.492 5.81 2.373 2.66 1.424 5.18 2.712 10.36 2.712 1.96 0 3.5-.203 4.83-.475-2.1-.474-4.13-1.017-6.02-1.83-9.24-3.729-10.64-8-10.78-9.695z" fill="url(#c)"/>
    <path d="M158.683 100.703c-.612-.545-1.293-1.158-1.973-1.703-.068.272-.068.545-.068.75a17.734 17.734 0 0 1-2.788 10.148c-2.244 3.474-7.005 6.539-12.854 8.582 2.448 1.294 4.897 2.52 9.657 2.52 5.033 0 7.482-1.362 10.066-2.724 2.04-1.09 4.08-2.18 7.277-2.725-.748-3.133-2.244-6.47-4.693-9.74a76.743 76.743 0 0 0-4.624-5.108z" fill="url(#d)"/>
    <path d="M71.53 106.154c2.004-8.494 9.12-18.023 21.212-28.38 7.116-6.077 10.709-14.778 12.16-19.335 2.072-6.353 2.625-12.36 1.589-15.813l.138-.553c.138-.552.138-1.104-.138-1.588-.277-.483-.691-.828-1.244-1.036l-.276-.069c-1.728-3.176-4.008-6.214-6.702-9.114l-.07-3.039c0-.552-.206-1.036-.621-1.45-.415-.345-.898-.552-1.45-.552h-.07l-3.247.069c-2.971-2.417-6.218-4.558-9.673-6.491L81.825 13.9c-.138-.552-.483-.967-.967-1.243a1.95 1.95 0 0 0-1.036-.276c-.208 0-.346 0-.553.07l-6.218 1.725C67.385 12.105 62.065 11 57.575 11c-.622 0-1.175 0-1.728.07-10.363.69-26.392 15.26-32.196 20.922-.622.069-1.243.276-1.727.76-.207.207-5.044 4.764-8.913 10.012-2.763 2.97-6.287 7.527-7.53 12.291-1.866 7.25 2.072 16.504 5.458 20.785 4.352 5.455 8.498 7.872 15.476 8.77 1.174.138 4.283.414 8.014.414 3.248 0 6.288-.207 8.982-.622-8.084 10.496-12.367 22.442-12.713 35.7.553-.276 1.106-.552 1.659-.897l.414-.208c.967-21.337 12.575-33.904 15.407-37.15 2.35-.69 4.353-1.312 5.804-1.864 1.796-.621 2.833-1.105 2.97-1.174.484-.207.76-.828.484-1.38a1.015 1.015 0 0 0-1.381-.484s-.691.345-1.935.76c-4.007 1.518-13.749 4.764-24.942 4.902-.138 0-.276.07-.414.138-1.106-.069-1.866-.138-2.142-.207-6.356-.829-10.156-2.97-14.164-8.01-2.901-3.66-6.77-12.43-5.043-18.99 1.105-4.35 4.353-8.562 7.116-11.462 3.662-5.04 8.498-9.53 8.706-9.805a.627.627 0 0 1 .483-.208c.138 0 .346.07.484.208 10.502-10.29 23.698-20.578 31.712-21.13.484-.07 1.037-.07 1.59-.07 4.421 0 9.81 1.174 15.407 3.246l.483-.138 3.524 1.588c.069 0 .138.07.207.07.207 0 .415-.139.484-.277.138-.276 0-.552-.277-.69l-2.418-1.105 4.768-1.312 1.589 5.73c3.73 2.003 7.392 4.42 10.709 7.182l4.007-.069.069 3.867.138.138c-.138 1.174-.207 2.14-.276 2.279-.07.276.069.552.345.622h.138a.52.52 0 0 0 .484-.346c.07-.207.138-.828.207-1.657 2.488 2.693 4.63 5.662 6.288 8.839l1.105.345-.345 1.174v.069l-1.106 2.693c-.138.276 0 .552.277.69.069 0 .138.07.207.07a.52.52 0 0 0 .483-.346l.553-1.45c1.036 6.836-3.109 23.064-13.403 31.833-8.222 7.043-13.611 13.19-17.066 18.575C66.073 107.26 68.63 115.614 70.84 121c.69-.207 1.313-.483 1.934-.76-1.174-3.383-2.694-7.94-1.243-14.086z" fill="url(#e)"/>
    <path d="M42.62.137h-.206c-2.897.48-3.793 2.604-5.655 6.167l2.965-.343c.414-.068.759.137.966.48.207.342.207.753.069 1.096l-5.035 8.839c-.207.343-.552.548-.896.548h-.138a1.122 1.122 0 0 1-.897-.754l-.965-3.289a52.497 52.497 0 0 1-4.483 5.482l-.414-.069-.069.069 2.414.617c.345.068.69.41.758.753.07.343-.068.754-.344 1.028l-8 6.372a1.117 1.117 0 0 1-.621.206c-.138 0-.345-.069-.483-.137-.345-.206-.552-.617-.552-1.028l.138-1.37-.069.068v.137c-1.793 1.44-3.724 2.741-5.655 3.974l-.345-.137 1.518.823c.345.205.551.548.551.959 0 .41-.206.753-.62.89l-9.518 4.454c-.137.069-.275.069-.413.069-.276 0-.483-.069-.69-.274-.276-.274-.414-.686-.276-1.097l.207-.616-.138.068v.069l-.414.205-.207.137h-.137A76.054 76.054 0 0 1 0 36.59c.759.068 1.586.137 2.483.137 5.103 0 7.586-1.37 10.207-2.74 2.758-1.508 5.586-3.016 11.172-3.016s8.414 1.508 11.172 3.015c2.621 1.44 5.104 2.74 10.207 2.74 5.104 0 7.587-1.37 10.207-2.74 1.242-.685 2.483-1.37 4.07-1.918C57.31 16.239 46.69.137 42.62.137z" fill="url(#f)" transform="translate(191 85)"/>
    <path d="M38 8.29l-4.207.48.138.411c.138-.137.345-.205.552-.068.276.137.345.411.276.685l-.414.822.827 2.741L38 8.291z" fill="url(#g)" transform="translate(191 85)"/>
    <path d="M34.69 16.924h.138c.344 0 .69-.205.896-.548l5.035-8.839a.925.925 0 0 0-.07-1.096c-.206-.343-.551-.48-.965-.48l-2.965.343s0 .068-.07.068l-3.792.891c-.69.137-1.173.89-.966 1.576l.62 2.535c.415-.617.828-1.302 1.173-2.193 0-.068.07-.137.138-.137l-.138-.41 4.207-.48-2.897 5.07-.827-2.74a27.74 27.74 0 0 1-1.38 2.26v.069l-.068.068.965 3.29c.207.41.552.753.966.753z" fill="url(#h)" transform="translate(191 85)"/>
    <path d="M27.862 20.556l-4-1.028-.207 1.918c.207-.068.414-.068.552.137a.535.535 0 0 1 0 .754l-.69.685-.138 1.234 4.483-3.7z" fill="url(#i)" transform="translate(191 85)"/>
    <path d="M21.586 27.339c.138.068.345.137.483.137.207 0 .483-.069.62-.206l8-6.372c.277-.274.414-.617.345-1.028-.068-.342-.344-.685-.758-.753l-2.414-.617-.759-.206-3.586-.48h-.207c-.69 0-1.241.48-1.31 1.166l-.69 4.59 2.138-1.987c.07-.068.07-.068.138-.068l.207-1.919 4 1.028-4.483 3.563.138-1.233-2.276 2.124-.138 1.37c0 .343.207.685.552.89z" fill="url(#j)" transform="translate(191 85)"/>
    <path d="M13.862 30.696l-3.793-2.055-1.035 2.809c.138 0 .345.069.414.274.138.274.07.548-.207.685l-.69.343-.137.48 5.448-2.536z" fill="url(#k)" transform="translate(191 85)"/>
    <path d="M5.931 35.904c.207.205.414.274.69.274.138 0 .276 0 .413-.069l9.518-4.453c.345-.137.551-.48.62-.891 0-.411-.206-.754-.551-.96l-1.518-.822-.206-.137-4.69-1.918c-.138-.069-.345-.069-.483-.069-.552 0-1.034.343-1.241.822l-1.931 4.66-.138.41 2.345-1.301c.069-.069.207-.069.275-.069l1.035-2.809 3.793 2.056-5.448 2.535.138-.48-2.69 1.44-.207.616c-.138.48-.069.89.276 1.165z" fill="url(#l)" transform="translate(191 85)"/>
    <path d="M233.164 83c-.205 0-.342 0-.548.07-3.698.553-5.068 3.255-6.712 6.58l-2.808.693a3.43 3.43 0 0 0-2.123 1.524c-.48.762-.617 1.662-.411 2.563l.685 3.048c-.96 1.316-1.987 2.563-3.083 3.879l-3.698-.554c-.137 0-.343-.07-.48-.07-1.644 0-3.082 1.247-3.356 2.91l-.822 5.542c-1.233.97-2.534 1.87-3.904 2.84l-4.246-1.801c-.411-.139-.822-.277-1.302-.277-1.37 0-2.603.831-3.15 2.147l-2.398 5.958a102.341 102.341 0 0 1-7.808 3.117c1.096.346 2.26.692 3.767.831 1.575-.623 3.22-1.316 4.932-2.078h.137l.205-.139.411-.208v-.069l.137-.07 2.671-1.454.685-.346c.274-.139.343-.416.206-.693-.069-.138-.274-.277-.411-.277-.069 0-.206 0-.274.07l-2.329 1.316.137-.416 1.918-4.71c.205-.555.685-.832 1.233-.832.137 0 .342 0 .48.07l4.657 1.939.274.07.342.138c1.918-1.247 3.836-2.563 5.617-4.018v-.138l.068-.07 2.26-2.147.685-.693a.548.548 0 0 0 0-.762c-.137-.138-.41-.208-.548-.138-.068 0-.068.069-.137.069L212 108.423l.685-4.641c.068-.693.685-1.178 1.301-1.178h.206l3.561.485.822.138.411.07c1.85-2.01 3.288-3.81 4.452-5.542l.069-.07v-.069c.48-.623.959-1.385 1.37-2.286l.41-.83c.138-.278 0-.555-.273-.694-.206-.069-.411-.069-.548.07l-.137.138c-.411.831-.754 1.593-1.165 2.217l-.616-2.563c-.206-.693.274-1.455.959-1.593l3.767-.9s0-.07.068-.07c1.85-3.672 2.74-5.819 5.617-6.235h.205c3.973 0 14.59 16.21 16.85 32.35.616-.208 1.233-.415 1.986-.554-.959-6.72-3.425-14.131-6.986-20.92C243.37 92.976 237.822 83 233.164 83z" fill="url(#m)"/>
    <path d="M157.945 97.994c0-.21.069-.418.069-.627.205-1.67.548-4.177-1.37-5.36a2.965 2.965 0 0 0-1.576-.418c-1.027 0-2.191.487-3.287.905-.274.139-.685.278-1.028.417-5.89-3.48-12.054-5.29-18.424-5.36h-1.439c-.342-.279-.822-.766-1.164-1.114-1.233-1.253-2.329-2.437-3.836-2.437h-.342c-1.78.278-2.877 2.089-3.973 3.899-.274.487-.685 1.114-.89 1.462-2.74.766-4.384 1.601-6.301 2.576-.48.278-1.028.487-1.576.766-.274-.14-.616-.279-.959-.418-1.37-.696-2.876-1.393-4.178-1.393-.753 0-1.301.21-1.644.488-1.712.974-1.917 3.342-2.123 5.43-.068.627-.137 1.462-.205 1.88-7.055 5.848-11.302 12.67-13.699 17.892.753.07 1.438.21 2.123.418a53.516 53.516 0 0 1 4.11-7.101c2.26-3.272 5.205-6.684 9.041-9.747 1.096-.905.342-6.196 1.85-6.893.136-.139.342-.208.616-.208 1.301 0 3.698 1.531 4.794 1.88l1.987 1.044c.068.07.137.07.205.07.206 0 .342-.07.48-.28.136-.278 0-.556-.206-.695l-.959-.488c2.534-1.253 4.178-2.228 7.534-3.202 1.096-.279 2.74-4.943 4.247-5.152h.068c1.028 0 2.809 2.645 4.042 3.411.958.905 1.643 1.462 1.712 1.532.068.07.205.14.342.14.137 0 .274-.07.411-.21.206-.209.137-.557-.068-.696 0 0-.206-.209-.617-.487h.617c6.644.07 12.74 2.228 17.945 5.36.068.07.137.07.274.07.959 0 3.288-1.392 4.589-1.392.205 0 .342.07.48.139.479.278.616.975.547 1.74-.274 1.74-.685 5.5-.753 5.64-.069.278.137.557.41.557h.07c.273 0 .479-.21.479-.488 0 0 .068-.348.137-.905 0-.209.068-.487.068-.766a44.404 44.404 0 0 1 1.987 1.74c1.78 1.672 3.356 3.412 4.657 5.222 2.466 3.342 4.041 6.823 4.726 9.956.617-.07 1.302-.209 2.055-.209-1.301-6.544-5.616-13.228-12.055-18.588z" fill="url(#n)"/>
    <path d="M175.472 41h12.056c.27 0 .472-.214.472-.5 0-.286-.202-.5-.472-.5h-12.056c-.27 0-.472.214-.472.5 0 .214.202.5.472.5zM245.37 41.736c.074.132.296.264.518.264h.593c.297 0 .519-.198.519-.462s-.222-.461-.519-.461h-.296c-.222-.396-.667-.99-1.186-1.847-.148-.198-.519-.33-.74-.132-.223.132-.371.462-.149.66.667.989 1.112 1.714 1.26 1.978zM219.1 29.81c.066.127.261.19.391.19s.196-.063.326-.127c.195-.19.26-.444.065-.635-.651-.762-1.303-1.46-2.019-2.095a.52.52 0 0 0-.716 0 .49.49 0 0 0 0 .698 11.354 11.354 0 0 1 1.953 1.969zM198.546 27c.14 0 .21-.078.35-.156 1.467-1.323 3.494-2.179 5.94-2.49 1.957-.311 3.774-.233 5.521.234.28.077.56-.156.63-.467a.608.608 0 0 0-.42-.7c-1.887-.468-3.844-.546-5.87-.234-2.657.389-4.893 1.323-6.5 2.801-.21.234-.28.545-.07.779.07.155.21.233.419.233zM260.473 42h4.054c.27 0 .473-.214.473-.5 0-.286-.203-.5-.473-.5h-4.054c-.27 0-.473.214-.473.5 0 .214.203.5.473.5zM221.727 34.724c.091.207.364.276.637.276.09 0 .181 0 .272-.069.364-.138.455-.414.273-.69l-.636-.965c-.182-.276-.637-.345-.91-.207-.363.138-.454.483-.272.69.273.413.454.758.636.965zM227.633 29.34c1.162-.4 2.461-.4 3.965-.134 2.12.4 4.376 1.664 6.564 3.66a.53.53 0 0 0 .342.134.53.53 0 0 0 .342-.133.512.512 0 0 0 0-.732c-2.325-2.197-4.718-3.528-7.042-3.927-1.641-.333-3.146-.266-4.445.2-.273.066-.41.399-.342.599.069.266.342.399.616.332zM249.483 42h1.034a.48.48 0 0 0 .483-.5.48.48 0 0 0-.483-.5h-1.034a.48.48 0 0 0-.483.5c0 .214.207.5.483.5zM195.561 36c.061 0 .061 0 0 0 .305-.069.488-.276.427-.552-.06-.345-.06-.69-.06-.965a.496.496 0 0 0-.489-.483h-.122c-.183.069-.366.276-.305.483 0 .345.061.69.061 1.034 0 .07 0 .138.061.138.122.207.244.345.427.345zM196.918 41.777c.058-.157.116-.394.058-.551 0 0-.233-.71-.465-1.812-.058-.315-.29-.473-.523-.394-.232.079-.349.394-.29.709.116.394.174.788.29 1.103h-.639a.655.655 0 0 0-.349.551c0 .315.174.552.407.552H196.569c.174.157.29 0 .349-.158z" fill="#D7D7DB"/>
    <path d="M175.166 46h89.805c.549 0 1.029-.494 1.029-1.06 0-.564-.48-1.058-1.03-1.058h-20.855c-1.853-3.531-6.518-11.087-12.28-12.216-7.684-1.483-9.194 6.355-9.194 6.355s-5.076-13.629-18.043-11.863c-5.9.847-8.301 3.954-8.987 7.344h.137c.274 0 .549.211.549.494 0 .353.068.706.068.988 0 .283-.137.565-.48.565h-.068c-.206 0-.343-.14-.48-.282-.138 1.765.137 3.601.48 5.013h.754c-.068-.282-.206-.565-.343-.988-.068-.283.069-.565.343-.636.275-.07.55.07.618.353.274.989.549 1.624.549 1.624a.445.445 0 0 1-.07.495c-.068.14-.274.212-.41.212h-1.236c.412 1.412.755 2.4.824 2.542h-21.817c-.549 0-1.029.494-1.029 1.059.137.565.617 1.059 1.166 1.059z" fill="#FFF"/>
    <path d="M129.417 7h.14c.208 0 .416-.127.486-.317.278-.826 1.112-2.667 3.545-2.667.278 0 .625 0 .973.063 1.46.254 2.989 1.143 4.518 2.604.209.19.556.19.765 0a.468.468 0 0 0 0-.699c-1.669-1.587-3.337-2.54-5.075-2.857-.417-.064-.764-.127-1.181-.127-3.198 0-4.31 2.603-4.588 3.365 0 .318.209.572.417.635zM122.42.835c.34.055.612.11.951.165h.136c.204 0 .408-.11.476-.275.068-.22-.068-.44-.34-.494-.34-.11-.679-.165-1.019-.22-.271-.055-.543.11-.61.33-.069.22.135.44.407.494zM115.617 3c.15 0 .299-.057.374-.113.598-.511 1.495-.851 2.616-1.078.3-.057.449-.284.374-.51-.075-.228-.374-.341-.673-.285-1.346.284-2.392.738-3.14 1.305-.224.17-.224.454 0 .624.15 0 .3.057.449.057zM146.475 11h3.05c.272 0 .475-.214.475-.5 0-.286-.203-.5-.475-.5h-3.05c-.272 0-.475.214-.475.5 0 .286.203.5.475.5zM115.904 10.83c.068-.12.136-.301.068-.422l-.068-.12c-.136-.24-.408-.361-.68-.24-.067 0-.135.06-.135.06H103.475c-.271 0-.475.18-.475.42 0 .242.204.422.475.422H115.43c.203.12.34 0 .475-.12z" fill="#D7D7DB"/>
    <path d="M102.969 15h50c.55 0 1.031-.493 1.031-1.056 0-.563-.48-1.056-1.03-1.056h-11.814c-1.03-1.972-3.64-6.126-6.8-6.76-4.257-.845-5.15 3.52-5.15 3.52s-2.816-7.604-10.028-6.547c-5.288.704-5.495 4.717-4.945 7.393h.687c.068-.07.068-.07.137-.07.275-.141.55 0 .687.281l.069.14a.442.442 0 0 1-.07.494c-.068.14-.274.21-.411.21h-.824c.206.846.48 1.339.48 1.41l-12.019-.071h-.206.206c-.55 0-.962.493-.962 1.056-.068.563.344 1.056.962 1.056zM146.1 1c-.1 0-.1.1-.1.1l.1-.1z" fill="#FFF"/>
    <path d="M60.857 48c.072-.195.143-.325.143-.52v-3.116c0-.78-.643-1.364-1.5-1.364s-1.5.584-1.5 1.364v3.052c0 .194.071.454.143.584.5-.13 1-.195 1.571-.195.429.065.786.13 1.143.195z" fill="url(#o)"/>
    <path d="M62.137 52.28c.279.468.767.669 1.324.669.28 0 .558-.067.837-.268.697-.468.906-1.404.487-2.073-.07-.067-1.463-2.073-4.111-2.541C60.325 48 59.977 48 59.559 48c-.558 0-1.046.067-1.533.2-2.44.603-3.694 2.341-3.764 2.475-.487.669-.278 1.605.488 2.073.767.468 1.673.268 2.16-.468 0 0 .907-1.27 2.649-1.27 1.672 0 2.509 1.203 2.578 1.27zm-5.993-.267c-.279.468-.976.601-1.463.267-.488-.267-.628-.936-.28-1.404.07-.067 1.673-2.408 4.81-2.408 3.135 0 4.738 2.274 4.808 2.408.279.468.209 1.07-.279 1.404-.209.134-.348.134-.557.134-.349 0-.697-.134-.906-.468-.07-.067-1.046-1.472-3.067-1.472-1.951 0-2.996 1.539-3.066 1.539z" fill="#F9F9FA"/>
    <path d="M63.06 51.505c.209.27.558.472.907.472.21 0 .42-.067.56-.135.489-.27.628-.943.279-1.415-.07-.068-1.677-2.427-4.821-2.427-3.145 0-4.752 2.292-4.822 2.427-.279.472-.21 1.078.28 1.415.49.27 1.118.203 1.467-.27 0 0 1.048-1.482 3.075-1.482 1.956-.135 3.004 1.348 3.074 1.415z" fill="url(#p)"/>
    <path d="M27.857 48c.072-.195.143-.325.143-.52v-3.116c0-.78-.643-1.364-1.5-1.364s-1.5.584-1.5 1.364v3.052c0 .194.071.454.143.584.5-.13 1-.195 1.571-.195.357.065.786.13 1.143.195z" fill="url(#q)"/>
    <path d="M27.632 48.067C27.286 48 26.939 48 26.524 48a5.58 5.58 0 0 0-1.524.2c-2.423.603-3.67 2.341-3.74 2.475-.484.669-.276 1.605.486 2.073.692.468 1.662.268 2.146-.468 0 0 .9-1.27 2.632-1.27 1.731 0 2.631 1.203 2.631 1.27.277.468.762.669 1.316.669.277 0 .554-.067.831-.268.693-.468.9-1.404.485-2.073-.139-.134-1.524-2.14-4.155-2.541zm3.116 4.146c-.208.134-.346.134-.554.134-.346 0-.692-.134-.9-.468-.07-.067-1.039-1.471-3.047-1.471s-3.047 1.47-3.047 1.47c-.277.469-.97.603-1.454.268-.485-.267-.624-.936-.277-1.404.069-.067 1.662-2.408 4.778-2.408 3.116 0 4.709 2.274 4.778 2.408.346.535.208 1.204-.277 1.471z" fill="#F9F9FA"/>
    <path d="M26.985 48c-3.145 0-4.752 2.267-4.822 2.4-.279.467-.21 1.067.28 1.4.49.267 1.118.2 1.467-.267 0 0 1.048-1.466 3.075-1.466 2.026 0 3.074 1.466 3.074 1.466.21.267.56.467.908.467.21 0 .42-.067.56-.133.489-.267.628-.934.279-1.4 0-.2-1.607-2.467-4.821-2.467z" fill="url(#r)"/>
    <path d="M70.955 131.273c-.069-.208-.346-.312-.623-.26-.276.052-.622.156-.968.208-.277.052-.416.26-.346.467.069.156.276.312.484.312h.138c.346-.052.692-.156 1.038-.208.208-.104.416-.311.277-.52zM101.631 131.025c-.981-.26-1.823-.584-2.875-.974-.28-.13-.56 0-.701.26-.14.26 0 .52.28.65a21.02 21.02 0 0 0 3.016 1.039h.14c.21 0 .421-.13.491-.325.07-.325-.07-.585-.35-.65zM162.377 127.026c-.865.408-1.663.817-2.395 1.226-2.329 1.295-4.524 2.521-8.516 2.726-.266 0-.466.272-.466.545s.266.477.466.477c4.191-.273 6.587-1.567 8.915-2.862.732-.409 1.53-.818 2.329-1.227.266-.136.333-.408.266-.681-.067-.204-.333-.273-.599-.204zM106.576 131.063c-.343 0-.685 0-1.028-.063-.274 0-.548.188-.548.438s.206.5.48.5c.342 0 .685.062 1.027.062.274 0 .48-.188.48-.438.068-.312-.137-.5-.411-.5zM91.592 126.58c-1.631-.386-3.398-.58-5.37-.58-2.65 0-4.826.323-6.865 1.032-.272.065-.408.387-.34.645a.51.51 0 0 0 .476.323h.204c1.971-.645 4.01-.968 6.525-.968 1.904 0 3.603.194 5.166.58.272.065.544-.064.612-.322 0-.387-.136-.645-.408-.71zM55.223 129.938c.07.062.141.062.212.062a.55.55 0 0 0 .494-.25c.142-.25.071-.5-.212-.625l-.989-.438C51.973 127.376 49.147 126 43.495 126c-.283 0-.495.188-.495.438s.212.437.495.437c5.37 0 7.983 1.25 10.739 2.563l.989.5zM65.533 132c.267 0 .467-.25.467-.5s-.267-.438-.533-.438c-.934.063-2 0-2.934-.062-.266 0-.533.188-.533.438s.2.5.467.5c.6.062 1.266.062 1.866.062h1.2zM142.653 130.623a10.302 10.302 0 0 1-.904-.551c-.278-.184-.556 0-.694.367a.762.762 0 0 0 .277.918c.348.184.626.368.973.551.07 0 .14.092.209.092.208 0 .417-.184.486-.459 0-.367-.139-.826-.347-.918zM192.535 131.71c-1.795 0-3.39-.258-4.92-.688-.266-.086-.532.086-.598.43-.067.344.066.688.332.774 1.53.516 3.258.774 5.12.774.265 0 .531-.258.531-.602s-.2-.688-.465-.688zM179.67 127.309c-.344-.099-.62-.197-.964-.296-.275-.05-.55.05-.688.197-.07.198.068.395.344.494.344.099.62.148.895.247.07 0 .138.049.207.049.206 0 .413-.099.482-.247.138-.148 0-.345-.276-.444zM126.47 126.01c-4.3.274-6.682 1.573-8.998 2.871-.728.41-1.456.82-2.183 1.162-.265.137-.331.41-.265.684.066.205.265.273.463.273.066 0 .132 0 .199-.068.794-.41 1.521-.82 2.25-1.23 2.315-1.3 4.499-2.53 8.6-2.734.266 0 .464-.274.464-.547 0-.205-.265-.479-.53-.41zM171.6 126.882h.2c.933 0 1.867.06 2.667.118h.066c.267 0 .467-.176.467-.412 0-.235-.133-.47-.467-.47-.866-.06-1.8-.118-2.8-.118h-.266c-.267 0-.467.176-.467.47.133.236.333.412.6.412zM138.215 128.938c.073.062.145.062.218.062a.573.573 0 0 0 .509-.248c.145-.248 0-.496-.218-.62-1.163-.496-2.107-.868-3.052-1.116-.29-.062-.58.062-.653.31-.073.248.072.496.363.558.872.248 1.743.558 2.833 1.054zM156.305 141.038c-.271.05-.61.152-.949.203-.271.05-.407.253-.339.455a.563.563 0 0 0 .475.304h.135c.34-.05.678-.152 1.017-.203.271-.05.407-.253.339-.455-.068-.304-.407-.405-.678-.304zM151.516 142.072c-.946.061-2.028 0-2.975-.062-.27-.062-.541.185-.541.433s.203.495.473.495c.609.062 1.285.062 1.894.062h1.15c.27 0 .472-.248.472-.495.068-.248-.202-.433-.473-.433zM141.717 139.125c-.353-.125-.635-.313-.989-.438-2.755-1.312-5.581-2.687-11.233-2.687-.283 0-.495.188-.495.438s.212.437.495.437c5.37 0 7.913 1.25 10.739 2.563.353.187.636.312.989.5.07.062.141.062.212.062a.55.55 0 0 0 .494-.25c.142-.188.071-.5-.212-.625zM177.618 136.58c-1.626-.386-3.387-.58-5.42-.58-2.642 0-4.81.323-6.842 1.032-.271.065-.406.387-.339.645a.508.508 0 0 0 .474.323h.204c1.964-.645 3.997-.968 6.503-.968 1.897 0 3.591.194 5.15.58.27.065.541-.064.609-.322.135-.387-.068-.645-.339-.71zM192.558 142.063c-.339 0-.678 0-1.016-.063-.271 0-.542.188-.542.438s.203.5.474.5c.339 0 .677.062 1.016.062.27 0 .474-.188.474-.438.135-.312-.135-.5-.406-.5zM212.47 136c-4.3.274-6.682 1.575-8.998 2.877-.728.41-1.456.822-2.183 1.164-.265.137-.331.411-.265.685.066.206.265.274.463.274.066 0 .132 0 .199-.068.794-.411 1.521-.822 2.25-1.233 2.315-1.302 4.499-2.535 8.6-2.74.266 0 .464-.274.464-.548 0-.206-.265-.411-.53-.411zM187.635 142.025c-.983-.26-1.825-.584-2.878-.974-.28-.13-.562 0-.702.26-.14.26 0 .52.28.65 1.054.454 2.037.78 3.02 1.039h.14c.21 0 .421-.13.491-.325a.557.557 0 0 0-.35-.65zM87.495 136c-2.75 0-5.008.323-7.124 1.032-.282.065-.424.387-.353.645.07.194.282.323.494.323h.211c2.046-.645 4.162-.968 6.772-.968.282 0 .494-.193.494-.451.07-.387-.212-.581-.494-.581zM56.73 139.125c-.353-.125-.636-.313-.99-.438-2.758-1.312-5.587-2.687-11.245-2.687-.283 0-.495.188-.495.438s.212.437.495.437c5.375 0 7.992 1.25 10.75 2.563.354.187.637.312.99.5.072.062.142.062.213.062a.552.552 0 0 0 .495-.25c.142-.188 0-.5-.212-.625zM72.305 141.038c-.271.05-.61.152-.949.203-.271.05-.407.253-.339.455a.563.563 0 0 0 .475.304h.135c.34-.05.678-.152 1.017-.203.271-.05.407-.253.339-.455-.136-.304-.407-.405-.678-.304zM67.516 142.072c-.946.061-2.028 0-2.975-.062-.27-.062-.541.185-.541.433s.203.495.473.495c.609.062 1.285.062 1.894.062h1.15c.27 0 .472-.248.472-.495.068-.248-.202-.433-.473-.433zM278.083 121.965c-5.085 0-7.558-1.404-10.17-2.807-2.748-1.544-5.565-3.088-11.131-3.088h-1.1c-1.58.07-2.886.28-4.054.562-.687.14-1.374.35-1.992.561-1.512.561-2.818 1.263-4.054 1.965-2.612 1.474-5.085 2.807-10.17 2.807s-7.558-1.404-10.17-2.807c-2.748-1.544-5.565-3.088-11.131-3.088s-8.383 1.544-11.132 3.088c-2.61 1.474-5.084 2.807-10.17 2.807-.893 0-1.717-.07-2.473-.14-1.443-.14-2.68-.421-3.78-.843-1.442-.49-2.679-1.193-3.916-1.894-.48-.281-1.03-.562-1.512-.842-1.855-.983-3.985-1.825-7.146-2.106-.756-.07-1.58-.14-2.473-.14-.619 0-1.169 0-1.718.07-.756.07-1.443.14-2.062.21-3.23.492-5.36 1.685-7.352 2.808-2.611 1.473-5.085 2.807-10.17 2.807-4.81 0-7.283-1.263-9.757-2.597l-.412-.21c-2.749-1.544-5.566-3.088-11.132-3.088h-.068c-5.566 0-8.383 1.544-11.132 3.088-1.65.912-3.23 1.754-5.428 2.316-1.306.28-2.818.49-4.742.49-5.084 0-7.558-1.403-10.17-2.806-1.648-.913-3.366-1.895-5.702-2.456a58.85 58.85 0 0 0-2.13-.421c-.962-.14-2.062-.211-3.299-.211h-1.03c-4.123.14-6.597 1.193-8.796 2.386-.412.21-.893.491-1.305.702-.756.42-1.512.842-2.337 1.193-.618.28-1.236.561-1.924.772-1.58.49-3.435.842-5.909.842-5.085 0-7.558-1.404-10.17-2.807C52.017 117.544 49.2 116 43.634 116c-5.29 0-8.108 1.404-10.72 2.807l-.412.21c-.55.281-1.099.632-1.649.913-1.168.561-2.405 1.123-3.985 1.474-1.306.28-2.749.49-4.535.49-5.085 0-7.559-1.403-10.17-2.806C9.414 117.544 6.596 116 1.031 116 .48 116 0 116.491 0 117.053c0 .561.481 1.052 1.03 1.052 5.085 0 7.56 1.404 10.17 2.807C13.95 122.456 16.766 124 22.332 124s8.383-1.544 11.131-3.088c2.612-1.473 5.085-2.807 10.17-2.807s7.558 1.404 10.17 2.807C56.55 122.456 59.368 124 64.934 124s8.383-1.544 11.132-3.088c2.61-1.473 5.084-2.807 10.17-2.807 5.084 0 7.558 1.404 10.169 2.807 2.748 1.544 5.566 3.088 11.131 3.088 5.566 0 8.383-1.544 11.132-3.088 2.611-1.473 5.085-2.807 10.17-2.807 5.084 0 7.558 1.404 10.17 2.807 2.748 1.544 5.565 3.088 11.13 3.088 5.566 0 8.384-1.544 11.132-3.088 2.611-1.473 5.085-2.807 10.17-2.807s7.558 1.404 10.17 2.807c2.748 1.544 5.565 3.088 11.131 3.088s8.383-1.544 11.132-3.088c2.61-1.473 5.084-2.807 10.17-2.807 5.084 0 7.558 1.404 10.169 2.807 2.748 1.544 5.566 3.088 11.131 3.088 5.566 0 8.383-1.544 11.132-3.088 2.611-1.473 5.085-2.807 10.17-2.807 5.084 0 7.558 1.404 10.169 2.807 2.749 1.544 5.566 3.088 11.132 3.088.55 0 1.03-.491 1.03-1.053.138-.49-.343-.982-.893-.982z" fill="#D7D7DB"/>
  </g>
</svg>
